<svg xmlns="http://www.w3.org/2000/svg" viewBox="0 0 32 32" fill="none">
  <rect width="32" height="32" rx="8" fill="#2563eb"/>
  <path
    stroke="white"
    stroke-linecap="round"
    stroke-linejoin="round"
    stroke-width="1.5"
    d="M23.428 19.428a2 2 0 00-1.022-.547l-2.387-.477a6 6 0 00-3.86.517l-.318.158a6 6 0 01-3.86.517L10.05 19.21a2 2 0 00-1.806.547M12 8h8l-1 1v5.172a2 2 0 00.586 1.414l5 5c1.26 1.26.367 3.414-1.415 3.414H8.828c-1.782 0-2.674-2.154-1.414-3.414l5-5A2 2 0 0013 14.172V9L12 8z"
  />
</svg>
